<svg width="107" height="91" viewBox="0 0 107 91" fill="none" xmlns="http://www.w3.org/2000/svg">
<path d="M86.6763 70.243L88.6884 72.523L90.7982 74.784L92.9665 77.026L95.213 79.268L97.5572 81.472L99.96 83.676L102.441 85.861L105 88.027L105.703 88.673L106.172 89.224L106.309 89.471L106.407 89.699L106.426 89.908L106.387 90.098L106.289 90.25L106.133 90.402L105.918 90.516L105.645 90.611L104.922 90.744L103.945 90.782H80.5814L80.0735 90.744L79.6047 90.611L79.1944 90.421L78.8428 90.155L72.9628 84.493L72.5721 84.227L72.1228 84.075H71.654L71.2242 84.208L69.2121 85.177L67.2 86.051L65.2074 86.868L63.1954 87.59L61.2028 88.255L59.2102 88.844L57.2177 89.338L55.2251 89.775L52.9981 90.155L50.7516 90.421L49.2279 90.535L47.7237 90.611H46.2L44.6567 90.573L43.133 90.478L41.5898 90.326L40.0465 90.117L38.5033 89.87L36.2567 89.414L34.0688 88.882L31.9395 88.255L29.8688 87.533L27.8567 86.735L25.9033 85.842L24.0084 84.854L22.1526 83.79L20.3749 82.65L18.6558 81.415L16.9758 80.085L15.374 78.679L14.1823 77.539L13.0298 76.38L11.9163 75.183L10.8614 73.967L9.84558 72.713L8.88837 71.44L7.97023 70.148L7.1107 68.799L6.03628 66.994L5.04 65.132L4.12186 63.213L3.3014 61.237L2.55907 59.223L1.89488 57.152L1.32837 55.043L0.84 52.877L0.546977 51.262L0.312558 49.666L0.136744 48.07L0.0390697 46.493L0 44.916L0.0195349 43.339L0.0976743 41.781L0.234419 40.223L0.586046 37.886L1.05488 35.568L1.68 33.269L2.44186 30.989L3.36 28.728L4.41488 26.486L5.60651 24.244L6.93488 22.021L8.55628 19.627L10.2558 17.347L11.1349 16.264L12.053 15.219L12.9907 14.212L13.9284 13.243L14.9051 12.293L15.9014 11.381L16.9172 10.507L17.9526 9.671L19.027 8.873L20.1014 8.094L21.2149 7.372L22.3284 6.669L24.3209 5.548L26.3721 4.522L28.4819 3.61L30.6698 2.793L32.9163 2.071L35.2214 1.463L37.5851 0.95L40.027 0.532001L42.254 0.247002L44.4419 0.0760017L46.6298 0L48.7786 0.0190004L50.9079 0.133003L53.0177 0.342001L55.0884 0.665001L57.1395 1.083L59.5814 1.691L61.9842 2.47L64.3479 3.363L66.6921 4.427L68.9972 5.605L71.2633 6.935L73.4902 8.417L75.6977 10.032L77.573 11.552L79.3507 13.129L81.0112 14.763L82.574 16.454L84.0391 18.202L85.387 20.007L86.6372 21.85L87.7702 23.769L88.8642 25.878L89.8409 28.025L90.7005 30.248L91.4428 32.547L92.0484 34.903L92.5563 37.316L92.9275 39.786L93.1814 42.332L93.2986 44.327L93.3181 46.284L93.2595 48.222L93.1033 50.141L92.8884 52.041L92.5758 53.922L92.1656 55.765L91.6772 57.589L91.2279 59.033L90.7395 60.458L90.173 61.883L89.5675 63.27L88.9033 64.657L88.1805 66.025L87.3991 67.393L86.5786 68.723L86.4028 69.103L86.3637 69.502L86.4614 69.901L86.6763 70.243ZM38.5033 28.785L38.4642 27.949L38.3274 27.094L38.1126 26.277L37.8195 25.479L37.4484 24.719L36.9991 23.997L36.4912 23.313L35.9051 22.686L35.2605 22.116L34.5572 21.622L33.8149 21.185L33.0335 20.824L32.213 20.539L31.373 20.33L30.494 20.197L29.6344 20.159H28.9702L28.1107 20.197L27.2316 20.33L26.3916 20.539L25.5712 20.824L24.7898 21.185L24.0474 21.622L23.3442 22.116L22.6995 22.686L22.1135 23.313L21.6056 23.997L21.1563 24.719L20.7851 25.479L20.4921 26.277L20.2772 27.094L20.1405 27.949L20.1014 28.785V62.529L20.1405 63.365L20.2772 64.22L20.4921 65.037L20.7851 65.835L21.1563 66.595L21.6056 67.317L22.1135 68.001L22.6995 68.628L23.3442 69.198L24.0474 69.692L24.7898 70.129L25.5712 70.49L26.3916 70.775L27.2316 70.984L28.1107 71.117L28.9702 71.155H29.6344L30.494 71.117L31.373 70.984L32.213 70.775L33.0335 70.49L33.8149 70.129L34.5572 69.692L35.2605 69.198L35.9051 68.628L36.4912 68.001L36.9991 67.317L37.4484 66.595L37.8195 65.835L38.1126 65.037L38.3274 64.22L38.4642 63.365L38.5033 62.529V28.785ZM64.4065 20.178L63.7033 20.102L63.0195 20.064L62.3749 20.083L61.7498 20.14L61.1442 20.235L60.5581 20.387L60.0112 20.577L59.4837 20.824L58.8781 21.166L58.3312 21.565L57.8037 22.04L57.3153 22.572L56.866 23.161L56.4558 23.807L56.0651 24.529L55.7135 25.308L55.44 26.03L55.2056 26.771L55.0102 27.493L54.854 28.253L54.6586 29.697L54.6195 31.179L54.6 33.307L54.4437 35.302L54.307 36.252L54.1312 37.164L53.9358 38.057L53.6819 38.912L53.4084 39.748L53.0958 40.546L52.7442 41.306L52.3535 42.047L51.9433 42.75L51.4744 43.434L50.986 44.061L50.4586 44.688L49.9116 45.258L49.306 45.809L48.6809 46.322L48.0167 46.816L47.3135 47.272L46.5712 47.69L45.7898 48.089L44.9888 48.45L44.5395 48.678L44.227 48.963L44.0121 49.362L43.973 49.552L43.9926 49.723L44.1098 49.951L44.3247 50.084L44.7153 50.179L45.2233 50.236H45.8288L53.6819 50.008H53.7014L53.8967 50.027L54.0726 50.084L54.2484 50.179L54.3851 50.312L54.6 50.654L54.6781 51.053L54.6586 53.295L54.6 55.423L54.4828 57.456L54.346 59.394L54.2874 60.344V61.256L54.346 62.13L54.4828 62.985L54.6586 63.802L54.893 64.6L55.2056 65.341L55.5572 66.082L56.0456 66.861L56.5926 67.602L57.12 68.191L57.667 68.723L58.2726 69.198L58.8977 69.616L59.4251 69.92L59.9526 70.186L60.5386 70.414L61.1247 70.623L62.3749 70.927L63.7033 71.079L64.973 71.098L65.5591 71.041L66.1451 70.965L66.7116 70.851L67.2586 70.68L67.7861 70.49L68.2744 70.262L68.7433 69.996L69.1926 69.711L69.6419 69.369L70.0521 69.008L70.814 68.172L71.5172 67.203L71.8884 66.538L72.2205 65.797L72.494 64.961L72.7284 64.049L72.9042 63.061L73.0409 61.997L73.1191 60.857L73.1581 59.622L73.2363 51.281L73.2558 42.959L73.2363 34.618L73.4512 31.065L73.4707 30.343V29.621L73.4121 28.918L73.3144 28.253L73.1777 27.588L72.9823 26.961L72.7674 26.334L72.494 25.745L72.0642 24.928L71.5368 24.149L71.107 23.617L70.6577 23.123L70.1888 22.667L69.6809 22.249L69.1144 21.869L68.5479 21.508L67.9228 21.185L67.2781 20.919L66.614 20.672L65.9107 20.463L65.1684 20.311L64.4065 20.178Z" fill="#088397"/>
</svg>
